<svg aria-hidden="true" style="width:0;height:0;position:absolute;overflow:hidden" xmlns="http://www.w3.org/2000/svg"><defs><symbol id="icon-image_search" viewBox="0 0 24 24"><path d="M15.516 9q1.031 0 1.758-.727t.727-1.758-.727-1.781-1.758-.75-1.781.75-.75 1.781.75 1.758T15.516 9zm3.797-.094L22.407 12l-1.406 1.406-3.141-3.094q-1.172.703-2.391.703-1.875 0-3.164-1.313t-1.289-3.188 1.313-3.188 3.188-1.313 3.188 1.313 1.313 3.188q0 1.219-.703 2.391zM16.5 18H5.484l2.766-3.516 1.969 2.344 2.719-3.516zm1.5-5.016L20.016 15v5.016q0 .797-.609 1.383t-1.406.586H3.985q-.797 0-1.383-.586t-.586-1.383V6q0-.797.586-1.406t1.383-.609h5.531Q9.047 4.969 9 6.001H3.984v14.016H18v-7.031z"/></symbol><symbol id="icon-pictures" viewBox="0 0 32 32"><path d="m27.733 19.635-1.316 4.914-.037.01-1.438 5.367-9.296-2.49-.111.029-9.788-2.622-.017-.064-2.605-.699.493-1.841.032.009L8.479 4.226l-.032-.009.509-1.897 17.105 4.584.016-.056 4.711 1.262-3.072 11.46.017.065zm.649-10.137L10.359 4.669l-3.558 13.28 18.021 4.828 3.56-13.279zm-16.148 3.894 1.194 2.045 3.107-2.925 1.583 2.766 4.185-3.689 1.047 8.559-13.822-3.706 2.706-3.05zm.893-2.012a1.473 1.473 0 1 1 .765-2.846 1.473 1.473 0 0 1-.765 2.846zm8.513-6.901-.414.111-3.795-1.017 5.598-1.5.866 3.231-2.19-.587-.065-.238zM3.617 9.309l1.242 4.635-1.017 3.794-2.63-9.818L6.88 6.401l-.587 2.19-2.676.718zm3.441 20.427L6.04 25.938l7.597 2.036-6.579 1.762z"/></symbol><symbol id="icon-angle-double-down" viewBox="0 0 18 28"><path d="M16.797 13.5a.54.54 0 0 1-.156.359L9.36 21.14c-.094.094-.234.156-.359.156s-.266-.063-.359-.156l-7.281-7.281c-.094-.094-.156-.234-.156-.359s.063-.266.156-.359l.781-.781a.508.508 0 0 1 .359-.156.54.54 0 0 1 .359.156l6.141 6.141 6.141-6.141c.094-.094.234-.156.359-.156s.266.063.359.156l.781.781a.536.536 0 0 1 .156.359zm0-6a.54.54 0 0 1-.156.359L9.36 15.14c-.094.094-.234.156-.359.156s-.266-.063-.359-.156L1.361 7.859c-.094-.094-.156-.234-.156-.359s.063-.266.156-.359l.781-.781a.508.508 0 0 1 .359-.156.54.54 0 0 1 .359.156l6.141 6.141 6.141-6.141c.094-.094.234-.156.359-.156s.266.063.359.156l.781.781a.536.536 0 0 1 .156.359z"/></symbol></defs></svg>